
<svg viewBox="0 0 200 200" xmlns="http://www.w3.org/2000/svg"><g><g><line x1="0px" y1="0px" x2="200px" y2="0px" stroke="rgba(0%,0%,0%,1)"></line><line x1="0px" y1="10px" x2="200px" y2="10px" stroke="rgba(0%,0%,0%,1)"></line><line x1="0px" y1="20px" x2="200px" y2="20px" stroke="rgba(0%,0%,0%,1)"></line><line x1="0px" y1="30px" x2="200px" y2="30px" stroke="rgba(0%,0%,0%,1)"></line><line x1="0px" y1="40px" x2="200px" y2="40px" stroke="rgba(0%,0%,0%,1)"></line><line x1="0px" y1="50px" x2="200px" y2="50px" stroke="rgba(0%,0%,0%,1)"></line><line x1="0px" y1="60px" x2="200px" y2="60px" stroke="rgba(0%,0%,0%,1)"></line><line x1="0px" y1="70px" x2="200px" y2="70px" stroke="rgba(0%,0%,0%,1)"></line><line x1="0px" y1="80px" x2="200px" y2="80px" stroke="rgba(0%,0%,0%,1)"></line><line x1="0px" y1="90px" x2="200px" y2="90px" stroke="rgba(0%,0%,0%,1)"></line><line x1="0px" y1="100px" x2="200px" y2="100px" stroke="rgba(0%,0%,0%,1)"></line><line x1="0px" y1="110px" x2="200px" y2="110px" stroke="rgba(0%,0%,0%,1)"></line><line x1="0px" y1="120px" x2="200px" y2="120px" stroke="rgba(0%,0%,0%,1)"></line><line x1="0px" y1="130px" x2="200px" y2="130px" stroke="rgba(0%,0%,0%,1)"></line><line x1="0px" y1="140px" x2="200px" y2="140px" stroke="rgba(0%,0%,0%,1)"></line><line x1="0px" y1="150px" x2="200px" y2="150px" stroke="rgba(0%,0%,0%,1)"></line><line x1="0px" y1="160px" x2="200px" y2="160px" stroke="rgba(0%,0%,0%,1)"></line><line x1="0px" y1="170px" x2="200px" y2="170px" stroke="rgba(0%,0%,0%,1)"></line><line x1="0px" y1="180px" x2="200px" y2="180px" stroke="rgba(0%,0%,0%,1)"></line><line x1="0px" y1="190px" x2="200px" y2="190px" stroke="rgba(0%,0%,0%,1)"></line><line x1="0px" y1="200px" x2="200px" y2="200px" stroke="rgba(0%,0%,0%,1)"></line></g><g><line x1="0px" y1="0px" x2="0px" y2="200px" stroke="rgba(0%,0%,0%,1)"></line><line x1="10px" y1="0px" x2="10px" y2="200px" stroke="rgba(0%,0%,0%,1)"></line><line x1="20px" y1="0px" x2="20px" y2="200px" stroke="rgba(0%,0%,0%,1)"></line><line x1="30px" y1="0px" x2="30px" y2="200px" stroke="rgba(0%,0%,0%,1)"></line><line x1="40px" y1="0px" x2="40px" y2="200px" stroke="rgba(0%,0%,0%,1)"></line><line x1="50px" y1="0px" x2="50px" y2="200px" stroke="rgba(0%,0%,0%,1)"></line><line x1="60px" y1="0px" x2="60px" y2="200px" stroke="rgba(0%,0%,0%,1)"></line><line x1="70px" y1="0px" x2="70px" y2="200px" stroke="rgba(0%,0%,0%,1)"></line><line x1="80px" y1="0px" x2="80px" y2="200px" stroke="rgba(0%,0%,0%,1)"></line><line x1="90px" y1="0px" x2="90px" y2="200px" stroke="rgba(0%,0%,0%,1)"></line><line x1="100px" y1="0px" x2="100px" y2="200px" stroke="rgba(0%,0%,0%,1)"></line><line x1="110px" y1="0px" x2="110px" y2="200px" stroke="rgba(0%,0%,0%,1)"></line><line x1="120px" y1="0px" x2="120px" y2="200px" stroke="rgba(0%,0%,0%,1)"></line><line x1="130px" y1="0px" x2="130px" y2="200px" stroke="rgba(0%,0%,0%,1)"></line><line x1="140px" y1="0px" x2="140px" y2="200px" stroke="rgba(0%,0%,0%,1)"></line><line x1="150px" y1="0px" x2="150px" y2="200px" stroke="rgba(0%,0%,0%,1)"></line><line x1="160px" y1="0px" x2="160px" y2="200px" stroke="rgba(0%,0%,0%,1)"></line><line x1="170px" y1="0px" x2="170px" y2="200px" stroke="rgba(0%,0%,0%,1)"></line><line x1="180px" y1="0px" x2="180px" y2="200px" stroke="rgba(0%,0%,0%,1)"></line><line x1="190px" y1="0px" x2="190px" y2="200px" stroke="rgba(0%,0%,0%,1)"></line><line x1="200px" y1="0px" x2="200px" y2="200px" stroke="rgba(0%,0%,0%,1)"></line></g></g></svg>
