<svg viewBox="0 0 300 100" xmlns="http://www.w3.org/2000/svg"><path d="M20.000000000000007 84.64101615137756L19.99999999999998 15.358983848622474 A10 10 0 0 1 34.999999999999986 6.698729810778081 L94.99999999999999 41.3397459621556 A10 10 0 0 1 95 58.66025403784438 L35 93.30127018922194 A10 10 0 0 1 20.000000000000007 84.64101615137756Z" fill="limegreen"></path><path d="M165.45084971874738 97.55282581475768L109.54915028125264 79.38926261462366 A0 0 0 0 1 109.54915028125264 79.38926261462366 L109.54915028125262 20.61073738537635 A0 0 0 0 1 109.54915028125262 20.61073738537635 L165.45084971874735 2.447174185242318 A0 0 0 0 1 165.45084971874735 2.447174185242318 L200 49.999999999999986 A0 0 0 0 1 200 49.999999999999986 L165.45084971874738 97.55282581475768 A0 0 0 0 1 165.45084971874738 97.55282581475768Z" fill="palevioletred"></path><path d="M268.89015188748084 87.27469935054293L249.15344716812805 91.77947340870048 A19.524768260290116 19.524768260290116 0 0 1 232.6352836056217 88.00931036664926 L216.80767531073528 75.38721394182292 A19.524768260290113 19.524768260290113 0 0 1 209.45640094439113 60.12213542803556 L209.45640094439113 39.87786457196444 A19.524768260290113 19.524768260290113 0 0 1 216.8076753107353 24.61278605817708 L232.6352836056217 11.990689633350746 A19.524768260290116 19.524768260290116 0 0 1 249.15344716812805 8.220526591299524 L268.89015188748084 12.725300649457068 A19.52476826029011 19.52476826029011 0 0 1 282.1366905744511 23.28906274711715 L290.92035050919185 41.52852054182149 A19.52476826029011 19.52476826029011 0 0 1 290.92035050919185 58.47147945817848 L282.1366905744511 76.71093725288284 A19.524768260290116 19.524768260290116 0 0 1 268.89015188748084 87.27469935054293Z" fill="royalblue"></path></svg>
